<svg width="51" height="70" viewBox="0 0 51 70" fill="none" xmlns="http://www.w3.org/2000/svg">
<path d="M48.8824 20.6694H41.9206V16.4541C41.9206 7.38117 34.5394 0 25.4666 0C16.3938 0 9.01264 7.38117 9.01264 16.4541V20.6694H2.05078C0.918203 20.6694 0 21.5876 0 22.7202V67.9492C0 69.0818 0.918203 70 2.05078 70H48.8824C50.015 70 50.9332 69.0818 50.9332 67.9492V22.7202C50.9332 21.5875 50.015 20.6694 48.8824 20.6694ZM13.1142 16.4541C13.1142 9.64277 18.6554 4.10156 25.4666 4.10156C32.2778 4.10156 37.819 9.64277 37.819 16.4541V20.6694H33.9448V16.2118C33.9448 11.537 30.1416 7.73363 25.4666 7.73363C20.7918 7.73363 16.9884 11.5369 16.9884 16.2118V20.6694H13.1142V16.4541ZM29.8432 20.6694H21.09V16.2118C21.09 13.7986 23.0534 11.8352 25.4666 11.8352C27.8798 11.8352 29.8432 13.7985 29.8432 16.2118V20.6694ZM8.0109 48.1221H4.10156V42.5474H8.0109V48.1221ZM4.10156 52.2237H8.0109V57.7985H4.10156V52.2237ZM8.0109 38.4457H4.10156V32.871H8.0109V38.4457ZM46.8316 65.8984H4.10156V61.9001H10.0617C11.1943 61.9001 12.1125 60.9819 12.1125 59.8493V30.8202C12.1125 29.6877 11.1943 28.7695 10.0617 28.7695H4.10156V24.771H46.8316V65.8984Z" fill="#454545"/>
</svg>
