<svg width="16" height="31" viewBox="0 0 16 31" fill="none" xmlns="http://www.w3.org/2000/svg">
<path d="M10.5567 13.2832C8.66945 12.616 6.58203 11.8101 5.40953 10.8904C5.03287 10.595 4.86921 9.92253 5.0021 9.2172C5.13828 8.49464 5.62376 7.62005 6.57792 7.33266C8.53505 6.74299 9.87763 7.52571 10.3642 7.88938C11.2712 8.56764 12.5564 8.38212 13.2348 7.47512C13.913 6.56799 13.7275 5.28297 12.8204 4.60471C12.3825 4.27727 11.282 3.55758 9.7044 3.21305V2.33887C9.7044 1.20629 8.7862 0.288086 7.65362 0.288086C6.52105 0.288086 5.60285 1.20629 5.60285 2.33887V3.34731C5.53367 3.36645 5.46476 3.38449 5.3949 3.40555C3.12482 4.08942 1.42978 6.02522 0.971363 8.45772C0.549586 10.6957 1.28021 12.8644 2.87804 14.1177C4.19929 15.1541 6.02777 16.0326 9.18952 17.1504C11.32 17.9035 11.2738 19.6286 11.1549 20.3354C10.9145 21.765 9.71206 23.3099 7.63982 23.3236C5.61857 23.3364 4.98802 23.2369 3.43339 22.2201C2.48566 21.6 1.21459 21.8659 0.594567 22.8136C-0.0254521 23.7615 0.240329 25.0324 1.18806 25.6526C2.86177 26.7476 4.09415 27.1878 5.60271 27.3462V28.3276C5.60271 29.4602 6.52091 30.3784 7.65349 30.3784C8.78607 30.3784 9.70427 29.4602 9.70427 28.3276V27.1502C10.8564 26.837 11.9063 26.2603 12.8026 25.4368C14.064 24.2777 14.9153 22.7077 15.1998 21.0155C15.778 17.5765 13.9119 14.4691 10.5567 13.2832Z" fill="#454545"/>
</svg>
